<?xml version="1.0" standalone="no"?>
<!DOCTYPE svg PUBLIC "-//W3C//DTD SVG 20010904//EN"
 "http://www.w3.org/TR/2001/REC-SVG-20010904/DTD/svg10.dtd">
<svg version="1.0" xmlns="http://www.w3.org/2000/svg"
 width="512.000000pt" height="512.000000pt" viewBox="0 0 512.000000 512.000000"
 preserveAspectRatio="xMidYMid meet">

<g transform="translate(0.000000,512.000000) scale(0.100000,-0.100000)"
fill="#000000" stroke="none">
<path d="M2508 4441 c-57 -19 -97 -52 -122 -103 -25 -50 -26 -59 -26 -234 l0
-182 -57 -7 c-78 -9 -259 -56 -360 -93 l-82 -30 -105 166 c-57 92 -117 179
-133 194 -128 123 -333 35 -333 -144 0 -58 17 -93 154 -303 64 -100 64 -100
43 -115 -81 -56 -266 -201 -337 -264 -47 -42 -87 -76 -90 -76 -3 0 -67 59
-143 131 -76 72 -154 137 -172 145 -88 36 -197 3 -246 -74 -36 -57 -40 -141
-10 -200 11 -20 81 -95 155 -165 75 -71 136 -132 136 -137 0 -5 -36 -55 -80
-112 -45 -57 -112 -149 -151 -205 -43 -64 -77 -103 -87 -103 -10 0 -71 11
-137 25 -154 32 -205 24 -267 -42 -92 -96 -68 -250 47 -311 17 -8 102 -30 189
-49 88 -18 160 -34 161 -36 19 -45 235 -343 344 -472 103 -124 356 -374 471
-467 210 -169 496 -333 711 -407 620 -213 1263 -76 1854 396 145 116 243 210
266 254 51 101 3 229 -103 274 -88 36 -155 12 -278 -100 -298 -271 -583 -428
-904 -497 -143 -30 -370 -30 -513 0 -276 59 -540 195 -800 409 -127 105 -344
328 -456 468 -72 89 -199 267 -230 321 -8 14 110 185 241 349 112 140 351 382
472 479 259 206 547 346 805 390 116 20 336 21 451 1 174 -31 401 -120 573
-228 339 -210 707 -595 962 -1004 122 -195 137 -200 432 -143 116 22 229 48
249 56 125 55 156 216 60 317 -62 66 -110 73 -270 42 -70 -14 -132 -25 -139
-25 -7 0 -44 46 -82 103 -39 56 -106 148 -151 205 -44 57 -80 107 -80 112 0 4
62 68 139 140 158 150 176 178 169 268 -7 103 -74 172 -173 180 -87 7 -113 -8
-268 -154 -78 -74 -144 -134 -147 -134 -3 0 -44 34 -90 76 -71 63 -254 207
-337 264 -21 15 -21 15 43 115 137 210 154 245 154 303 0 179 -204 267 -333
144 -16 -15 -76 -102 -133 -193 l-105 -167 -97 35 c-108 39 -262 78 -346 88
l-56 7 0 182 c0 176 -1 184 -26 234 -40 81 -145 129 -226 103z"/>
<path d="M2375 3163 c-326 -69 -591 -324 -676 -648 -27 -104 -30 -298 -5 -399
81 -336 329 -586 662 -667 128 -32 295 -30 425 4 324 85 566 333 645 663 22
89 22 274 1 370 -74 339 -347 608 -689 678 -96 20 -269 20 -363 -1z m316 -399
c79 -24 138 -56 196 -108 197 -177 211 -481 33 -671 -104 -109 -215 -157 -360
-157 -441 0 -653 535 -327 828 92 82 197 123 323 123 46 1 103 -6 135 -15z"/>
</g>
</svg>
